<svg id="visual" viewBox="0 0 960 540" width="960" height="540" xmlns="http://www.w3.org/2000/svg" xmlns:xlink="http://www.w3.org/1999/xlink" version="1.1"><path d="M0 316L22.8 318C45.7 320 91.3 324 137 331.8C182.7 339.7 228.3 351.3 274 361.3C319.7 371.3 365.3 379.7 411.2 377.5C457 375.3 503 362.7 548.8 360.2C594.7 357.7 640.3 365.3 686 360.7C731.7 356 777.3 339 823 337.7C868.7 336.3 914.3 350.7 937.2 357.8L960 365L960 541L937.2 541C914.3 541 868.7 541 823 541C777.3 541 731.7 541 686 541C640.3 541 594.7 541 548.8 541C503 541 457 541 411.2 541C365.3 541 319.7 541 274 541C228.3 541 182.7 541 137 541C91.3 541 45.7 541 22.8 541L0 541Z" fill="#8869fa"></path><path d="M0 371L22.8 375C45.7 379 91.3 387 137 388.7C182.7 390.3 228.3 385.7 274 390.2C319.7 394.7 365.3 408.3 411.2 407.2C457 406 503 390 548.8 383.2C594.7 376.3 640.3 378.7 686 383.7C731.7 388.7 777.3 396.3 823 404.7C868.7 413 914.3 422 937.2 426.5L960 431L960 541L937.2 541C914.3 541 868.7 541 823 541C777.3 541 731.7 541 686 541C640.3 541 594.7 541 548.8 541C503 541 457 541 411.2 541C365.3 541 319.7 541 274 541C228.3 541 182.7 541 137 541C91.3 541 45.7 541 22.8 541L0 541Z" fill="#7758ed"></path><path d="M0 395L22.8 404.7C45.7 414.3 91.3 433.7 137 433.8C182.7 434 228.3 415 274 406.3C319.7 397.7 365.3 399.3 411.2 406.8C457 414.3 503 427.7 548.8 431.2C594.7 434.7 640.3 428.3 686 422.2C731.7 416 777.3 410 823 413.3C868.7 416.7 914.3 429.3 937.2 435.7L960 442L960 541L937.2 541C914.3 541 868.7 541 823 541C777.3 541 731.7 541 686 541C640.3 541 594.7 541 548.8 541C503 541 457 541 411.2 541C365.3 541 319.7 541 274 541C228.3 541 182.7 541 137 541C91.3 541 45.7 541 22.8 541L0 541Z" fill="#6547e0"></path><path d="M0 475L22.8 469.7C45.7 464.3 91.3 453.7 137 450.2C182.7 446.7 228.3 450.3 274 454.2C319.7 458 365.3 462 411.2 467.3C457 472.7 503 479.3 548.8 478.8C594.7 478.3 640.3 470.7 686 466.8C731.7 463 777.3 463 823 458.8C868.7 454.7 914.3 446.3 937.2 442.2L960 438L960 541L937.2 541C914.3 541 868.7 541 823 541C777.3 541 731.7 541 686 541C640.3 541 594.7 541 548.8 541C503 541 457 541 411.2 541C365.3 541 319.7 541 274 541C228.3 541 182.7 541 137 541C91.3 541 45.7 541 22.8 541L0 541Z" fill="#5236d3"></path><path d="M0 496L22.8 493.5C45.7 491 91.3 486 137 482.2C182.7 478.3 228.3 475.7 274 478.2C319.7 480.7 365.3 488.3 411.2 494.8C457 501.3 503 506.7 548.8 503.8C594.7 501 640.3 490 686 483.3C731.7 476.7 777.3 474.3 823 474.3C868.7 474.3 914.3 476.7 937.2 477.8L960 479L960 541L937.2 541C914.3 541 868.7 541 823 541C777.3 541 731.7 541 686 541C640.3 541 594.7 541 548.8 541C503 541 457 541 411.2 541C365.3 541 319.7 541 274 541C228.3 541 182.7 541 137 541C91.3 541 45.7 541 22.8 541L0 541Z" fill="#3d24c7"></path></svg>