<svg id="visual" viewBox="0 0 960 540" width="960" height="540" xmlns="http://www.w3.org/2000/svg" xmlns:xlink="http://www.w3.org/1999/xlink" version="1.1"><rect width="960" height="540" fill="#001829"></rect><g><g transform="translate(565 304)"><path d="M0 -149.7L142.4 -46.3L88 121.1L-88 121.1L-142.4 -46.3Z" fill="#297EA6"></path></g><g transform="translate(65 357)"><path d="M0 -108L102.7 -33.4L63.5 87.4L-63.5 87.4L-102.7 -33.4Z" fill="#297EA6"></path></g><g transform="translate(224 81)"><path d="M0 -81L77 -25L47.6 65.5L-47.6 65.5L-77 -25Z" fill="#297EA6"></path></g><g transform="translate(880 507)"><path d="M0 -121L115.1 -37.4L71.1 97.9L-71.1 97.9L-115.1 -37.4Z" fill="#297EA6"></path></g><g transform="translate(863 57)"><path d="M0 -97L92.3 -30L57 78.5L-57 78.5L-92.3 -30Z" fill="#297EA6"></path></g><g transform="translate(366 529)"><path d="M0 -98L93.2 -30.3L57.6 79.3L-57.6 79.3L-93.2 -30.3Z" fill="#297EA6"></path></g></g></svg>