<svg id="visual" viewBox="0 0 960 540" width="960" height="540" xmlns="http://www.w3.org/2000/svg" xmlns:xlink="http://www.w3.org/1999/xlink" version="1.1"><rect x="0" y="0" width="960" height="540" fill="#1b6098"></rect><g transform="translate(433.6605816594856 372.9505550378243)"><path d="M159.3 -263.4C237.2 -230.9 352.4 -250.4 418.1 -215.2C483.8 -180 499.9 -90 452.3 -27.5C404.6 35 293.2 70 234.2 116.6C175.1 163.2 168.3 221.5 138 237C107.7 252.5 53.8 225.2 15.7 198.1C-22.5 171 -45 143.9 -104.8 145.4C-164.5 146.9 -261.5 177 -321.6 157.5C-381.7 138 -404.8 69 -372.4 18.8C-339.9 -31.5 -251.8 -63 -224.1 -138.6C-196.5 -214.3 -229.2 -334 -201.9 -395.8C-174.7 -457.5 -87.3 -461.3 -23.3 -420.9C40.7 -380.4 81.3 -295.9 159.3 -263.4" fill="#f9f9f9"></path></g></svg>